<svg width="130" height="130" viewBox="0 0 130 130" fill="none" xmlns="http://www.w3.org/2000/svg">
<g id="Arrow_05" clip-path="url(#clip0_468_772)">
<g id="Group">
<path id="Vector" fill-rule="evenodd" clip-rule="evenodd" d="M83.0521 73C86.1818 74.7071 89.7996 75.2204 93.8609 74.0321C106.424 70.3557 111.507 60.5176 112.193 48.8552C113.194 31.826 104.681 10.8694 97.0716 0.453843C96.7118 -0.0398773 96.0199 -0.145904 95.529 0.213926C95.0353 0.573756 94.9266 1.26553 95.2864 1.75925C102.673 11.868 110.957 32.1997 109.986 48.7268C109.356 59.4352 104.779 68.5342 93.2389 71.9094C89.8052 72.9163 86.7536 72.4728 84.1037 71.0363C85.0158 69.2902 85.8666 67.5412 86.6532 65.7923C88.8234 60.9639 92.0674 47.5581 90.8568 37.7004C89.9865 30.6294 86.8317 25.3881 79.9364 25.5722C76.1038 25.6754 73.3312 28.0631 71.6352 31.8622C69.3005 37.0839 69.0384 45.0839 70.6813 52.7491C72.0481 59.1312 74.7258 65.2706 78.5249 69.3905C79.3618 70.2943 80.2489 71.1061 81.1889 71.8034C68.0788 95.7809 43.7247 118.202 18.7151 127.658C18.146 127.876 17.856 128.511 18.0736 129.083C18.2884 129.655 18.9272 129.942 19.4962 129.728C44.913 120.115 69.6714 97.368 83.0521 73ZM82.2461 69.8201C83.0996 68.1772 83.8973 66.5315 84.6365 64.8857C86.7146 60.2581 89.822 47.4158 88.6616 37.971C87.9503 32.1747 85.6462 27.6308 79.9949 27.7814C77.027 27.8623 74.9686 29.8232 73.652 32.7632C72.2071 35.9989 71.6547 40.381 71.8863 45.0532C72.2377 52.1466 74.405 59.9066 78.1763 65.3989C79.3701 67.1395 80.7286 68.6486 82.2461 69.8201Z" fill="#FF5200"/>
<path id="Vector_2" fill-rule="evenodd" clip-rule="evenodd" d="M38.4949 91.6684C36.2689 104.667 27.7725 118.508 18.6149 128.092C18.1937 128.533 18.2104 129.233 18.6512 129.654C19.0919 130.075 19.7921 130.061 20.2133 129.621C29.6581 119.738 38.3777 105.442 40.6734 92.0422C40.7766 91.4425 40.3721 90.8706 39.7696 90.7674C39.1698 90.6642 38.5981 91.0687 38.4949 91.6684Z" fill="#FF5200"/>
<path id="Vector_3" fill-rule="evenodd" clip-rule="evenodd" d="M20.3557 129.853C29.8898 124.408 44.5145 123.655 55.1755 126.414C55.7669 126.567 56.3722 126.213 56.5228 125.622C56.6762 125.03 56.322 124.428 55.7307 124.275C44.562 121.385 29.2483 122.23 19.2595 127.934C18.7296 128.235 18.5453 128.913 18.8466 129.443C19.1506 129.973 19.8257 130.157 20.3557 129.853Z" fill="#FF5200"/>
</g>
</g>
<defs>
<clipPath id="clip0_468_772">
<rect width="130" height="130" fill="white" transform="matrix(-1 0 0 -1 130 130)"/>
</clipPath>
</defs>
</svg>
