<svg width="75" height="66" viewBox="0 0 75 66" fill="none" xmlns="http://www.w3.org/2000/svg">
<path d="M8.79512 33.7959C10.1746 33.9763 11.4506 34.3899 12.7729 34.8195C13.0541 34.9092 13.3353 34.9989 13.625 35.0914C14.1929 35.2726 14.7606 35.4547 15.328 35.6375C16.0446 35.8654 16.7629 36.084 17.484 36.2971C17.6842 36.3573 17.8845 36.4175 18.0908 36.4794C18.62 36.6381 19.1497 36.7948 19.6794 36.9513C20.6205 37.3239 21.2405 37.6887 21.9441 38.4257C22.0458 39.2464 21.8425 39.8551 21.6673 40.6774C23.1261 40.5847 23.9814 40.2452 25.1605 39.369C26.9717 38.3246 28.8114 37.9862 30.8731 38.0035C31.2159 38.0062 31.2159 38.0062 31.5657 38.009C34.9357 38.1103 37.5265 39.4457 39.9404 41.8032C40.5333 42.457 41.1059 43.1184 41.66 43.8064C42.4404 44.6412 43.0175 44.877 44.1545 44.9801C44.6719 44.9879 44.6719 44.9879 45.1998 44.996C45.3855 45.0001 45.5711 45.0042 45.7624 45.0085C46.3539 45.0215 46.9454 45.0312 47.537 45.04C48.3154 45.0516 49.0936 45.0667 49.8719 45.0839C50.3899 45.0918 50.3899 45.0918 50.9182 45.0999C51.8457 45.1807 51.8457 45.1807 52.5401 45.4858C54.0364 46.045 55.472 45.3991 56.8563 44.7651C57.1679 44.6236 57.4794 44.482 57.8004 44.3362C58.1252 44.1853 58.45 44.0344 58.7847 43.879C59.1214 43.7246 59.4581 43.5703 59.7949 43.4162C61.8199 42.4833 63.8264 41.5234 65.7993 40.4817C67.4033 39.6639 68.6612 39.2205 70.4617 39.7252C72.3452 40.4525 73.3814 41.6814 74.2719 43.4919C74.4139 44.9406 74.4564 46.1904 73.8393 47.5203C72.3984 49.1354 70.6848 50.3968 68.9422 51.6543C68.4993 51.9765 68.0566 52.299 67.6141 52.6218C67.2744 52.8694 67.2744 52.8694 66.9279 53.122C65.8162 53.9373 64.7145 54.766 63.6125 55.5947C61.2923 57.3368 58.9617 59.0634 56.6175 60.772C55.9799 61.2376 55.3442 61.7057 54.7085 62.1738C54.2907 62.4788 53.8729 62.7838 53.455 63.0885C53.266 63.2284 53.0769 63.3684 52.8822 63.5125C50.3565 65.3434 48.3317 65.7958 45.2009 65.4458C43.739 65.1521 42.3305 64.7322 40.9095 64.2847C40.5206 64.1671 40.1315 64.05 39.7422 63.9337C39.1572 63.7587 38.5723 63.5835 37.988 63.4061C36.3243 62.9015 34.6496 62.4497 32.9669 62.0155C30.2016 61.2952 27.4576 60.5083 24.7174 59.6953C24.5332 59.6424 24.3489 59.5896 24.159 59.5351C23.9851 59.4835 23.8112 59.4319 23.632 59.3787C22.3108 59.094 20.936 59.1529 19.5908 59.1305C19.2749 59.1176 18.959 59.1048 18.6336 59.0915C17.7682 59.0796 16.9799 59.0867 16.1299 59.2537C15.3712 60.0162 15.3712 60.0162 15.0225 60.9424C13.6083 62.2398 12.5254 62.4524 10.6703 62.4338C9.10822 62.2892 7.65031 61.8188 6.16266 61.3293C5.62199 61.1521 5.07918 60.9837 4.5356 60.816C1.49446 59.8404 1.49446 59.8404 0.625397 58.6907C0.603725 56.3187 1.47435 54.0559 2.16547 51.8126C2.29101 51.3993 2.41635 50.9859 2.54149 50.5725C2.79476 49.7369 3.04924 48.9018 3.30484 48.067C3.73654 46.6566 4.16188 45.2442 4.58724 43.8317C4.85719 42.937 5.12901 42.043 5.40134 41.149C5.70638 40.1471 6.00676 39.144 6.30116 38.1387C6.36351 37.9285 6.42585 37.7183 6.49009 37.5017C6.64953 36.9635 6.80693 36.4248 6.96413 35.886C7.65161 34.0041 7.65161 34.0041 8.79512 33.7959Z" fill="#3F1212"/>
<path d="M45.8649 1.10015C47.6431 2.22553 48.6987 3.78243 49.3528 5.77721C50.2215 10.0372 49.7764 14.6142 47.7154 18.4363C47.3792 19.0343 47.3792 19.0343 47.1379 19.8502C47.4423 19.9695 47.7467 20.0889 48.0604 20.2119C52.0773 21.8193 56.2779 23.6816 58.1433 27.9069C58.7678 29.6209 59.1782 31.5745 58.577 33.3591C57.8116 34.8604 56.7171 35.6495 55.167 36.1748C54.7925 36.2018 54.4169 36.214 54.0414 36.2162C53.6986 36.2192 53.6986 36.2192 53.3488 36.2223C53.099 36.2231 52.8491 36.2238 52.5917 36.2246C52.1959 36.2274 52.1959 36.2274 51.792 36.2302C50.9173 36.2358 50.0426 36.2391 49.1679 36.2419C48.7195 36.2436 48.7195 36.2436 48.2622 36.2453C46.6799 36.2512 45.0976 36.2552 43.5153 36.2579C41.8826 36.261 40.2501 36.2707 38.6175 36.2819C37.3607 36.2892 36.104 36.2916 34.8473 36.2926C34.2456 36.2939 33.6439 36.2972 33.0422 36.3024C32.1986 36.3093 31.3552 36.309 30.5116 36.3071C30.1411 36.3125 30.1411 36.3125 29.763 36.318C28.149 36.3044 26.8775 36.008 25.5423 35.049C24.5303 33.7564 24.0328 32.6393 24.066 30.9678C24.4448 28.0686 25.8565 25.6556 28.0341 23.7906C30.4444 22.1202 33.0869 20.9512 35.7863 19.8502C35.7863 18.7675 35.0341 17.7877 34.5426 16.8487C33.5362 14.5851 33.4703 12.4872 33.4676 10.0343C33.4608 9.719 33.454 9.40371 33.447 9.07886C33.4386 6.64389 33.8455 4.53695 35.3364 2.57562C38.2543 -0.390664 42.209 -0.670597 45.8649 1.10015Z" fill="#3F1212"/>
<path d="M36.9001 43.8189C37.7497 44.6197 38.4656 45.5293 39.1767 46.4575C41.5713 48.6301 44.1565 48.7461 47.2437 48.7169C47.9788 48.7107 48.7126 48.7124 49.4478 48.718C49.7691 48.7149 50.0905 48.7119 50.4216 48.7087C51.4793 48.8681 51.9282 49.2035 52.6772 49.9659C52.9887 50.7927 52.9887 50.7927 52.9541 51.6546C52.2655 52.5332 51.843 53.0041 50.7467 53.2362C50.4424 53.2355 50.1381 53.2348 49.8246 53.2341C49.3049 53.2383 49.3049 53.2383 48.7748 53.2426C48.3993 53.2389 48.0237 53.2351 47.6482 53.2312C47.2611 53.2328 46.874 53.2351 46.4869 53.2381C45.4703 53.2445 44.4539 53.2433 43.4374 53.2398C41.8084 53.2347 40.1796 53.2375 38.5507 53.2471C37.9821 53.2488 37.4137 53.2451 36.8451 53.2409C36.5004 53.2419 36.1558 53.243 35.8006 53.244C35.4968 53.2429 35.1929 53.2418 34.8799 53.2406C34.1236 53.2817 34.1236 53.2817 33.6116 53.7278C33.1687 54.3744 33.2206 54.8233 33.2965 55.5951C33.3879 55.8737 33.4793 56.1524 33.5734 56.4394C35.8864 56.4525 38.1993 56.4625 40.5123 56.4686C41.5864 56.4715 42.6605 56.4755 43.7347 56.4819C44.7723 56.488 45.8099 56.4914 46.8475 56.4929C47.2423 56.4939 47.6371 56.4959 48.032 56.499C48.5872 56.5031 49.1425 56.5033 49.6977 56.5033C50.0131 56.5046 50.3285 56.5058 50.6535 56.5071C52.3514 56.3817 53.6779 55.9851 54.8921 54.7507C55.9211 53.414 56.0717 52.4331 56.1683 50.7377C56.1896 50.3825 56.211 50.0272 56.2329 49.6612C56.2545 49.2547 56.2545 49.2547 56.2765 48.84C58.1502 47.9742 60.0239 47.1084 61.8976 46.2426C62.2009 46.1024 62.2009 46.1024 62.5104 45.9593C62.9138 45.773 63.3174 45.587 63.7211 45.4014C64.5986 44.9975 65.4724 44.5893 66.3414 44.1667C66.6071 44.0381 66.8729 43.9096 67.1467 43.7771C67.3704 43.6663 67.594 43.5555 67.8245 43.4414C68.5509 43.1773 69.077 43.124 69.8429 43.2109C70.5005 43.8266 70.5005 43.8266 70.9504 44.6182C70.9677 45.2756 70.9677 45.2756 70.6735 46.0255C70.0514 46.6232 69.3467 47.0809 68.6316 47.5559C68.199 47.8543 67.7668 48.1534 67.3349 48.453C67.1094 48.6083 66.8839 48.7636 66.6515 48.9236C65.5325 49.707 64.4439 50.5313 63.3539 51.3556C61.4469 52.7915 59.5308 54.2131 57.6025 55.6191C56.502 56.4234 55.4106 57.2378 54.3287 58.0677C54.0961 58.2451 53.8636 58.4226 53.6241 58.6054C53.1805 58.9445 52.7384 59.2855 52.2981 59.6289C50.6114 60.9153 48.8581 62.1924 46.6726 62.0686C45.0633 61.815 43.5179 61.3304 41.9613 60.8532C40.6519 60.458 39.3358 60.086 38.0206 59.7114C37.7244 59.6269 37.4282 59.5424 37.1231 59.4553C34.8291 58.804 32.5286 58.1809 30.2201 57.585C28.8347 57.2254 27.4876 56.8179 26.1326 56.3515C23.281 55.4868 20.1904 55.6361 17.2383 55.5951C17.4218 53.6479 18.0134 51.8436 18.588 49.9835C18.6854 49.6622 18.7829 49.3409 18.8833 49.0099C19.3948 47.3369 19.9342 45.6874 20.5607 44.0552C20.858 44.0512 21.1553 44.0473 21.4616 44.0431C24.4563 43.97 24.4563 43.97 26.9286 42.3665C30.3892 40.6504 33.9715 41.4788 36.9001 43.8189Z" fill="#FCDE5A"/>
<path d="M23.9907 3.94555C25.9356 4.61468 27.0273 5.99114 28.0345 7.74635C28.9978 11.4139 28.2799 15.3937 26.6502 18.7233C27.1984 18.909 27.7466 19.0948 28.3114 19.2862C27.5827 20.0554 26.8383 20.7124 25.9926 21.3443C23.3305 23.4329 22.1354 25.6607 21.3573 28.936C21.3068 29.145 21.2563 29.354 21.2043 29.5694C21.0807 30.0818 20.9582 30.5946 20.836 31.1075C19.4469 31.1424 18.0582 31.1678 16.6688 31.1848C16.1967 31.1918 15.7246 31.2014 15.2525 31.2136C14.5721 31.2308 13.892 31.2387 13.2113 31.2449C12.8972 31.2558 12.8972 31.2558 12.5766 31.2669C11.4711 31.2675 10.7893 31.1574 9.90908 30.448C8.7027 29.1619 8.8191 27.8446 8.83771 26.1423C9.02683 24.2198 9.95565 22.9367 11.3014 21.6258C12.9996 20.2178 15.059 19.0713 17.2367 18.7233C17.14 18.5128 17.0433 18.3024 16.9436 18.0856C16.8176 17.8084 16.6917 17.5312 16.5619 17.2456C16.4366 16.9713 16.3113 16.697 16.1822 16.4144C15.1032 13.8393 15.1727 10.3266 15.7972 7.63531C17.2728 4.27951 20.6436 3.24059 23.9907 3.94555Z" fill="#3F1212"/>
<path d="M64.6516 4.55517C65.8385 5.47893 66.7635 6.63003 67.3511 8.02833C67.4679 9.06894 67.4409 10.1129 67.4376 11.1596C67.4421 11.4397 67.4465 11.7198 67.4511 12.0083C67.4527 14.4334 67.0842 16.6988 65.6899 18.7238C66.0382 18.8283 66.3866 18.9328 66.7454 19.0404C69.6916 20.0498 72.4074 21.5506 73.8402 24.4585C74.4268 25.979 74.5786 27.3701 74.0608 28.9333C73.4205 30.3641 73.4205 30.3641 72.7327 30.8517C71.7545 31.2231 70.7987 31.177 69.7693 31.1629C69.5497 31.1622 69.33 31.1614 69.1037 31.1605C68.4041 31.1574 67.7046 31.1503 67.005 31.1432C66.5299 31.1403 66.0547 31.1378 65.5796 31.1355C64.4166 31.1293 63.2536 31.1196 62.0906 31.108C62.0391 30.8308 62.0391 30.8308 61.9865 30.5479C61.122 26.0075 59.4641 23.0531 55.7476 20.3026C55.3759 20.0489 54.9965 19.8067 54.6152 19.5682C55.6189 18.7238 55.6189 18.7238 56.5533 18.7238C56.4566 18.5337 56.3599 18.3435 56.2602 18.1477C56.1342 17.8966 56.0082 17.6455 55.8784 17.3868C55.7532 17.1387 55.6279 16.8905 55.4988 16.6348C54.7554 14.9993 54.822 13.3914 54.8056 11.6169C54.7975 11.3321 54.7895 11.0473 54.7812 10.7539C54.7636 8.62427 55.1088 7.12911 56.4733 5.4886C58.7843 3.58043 61.9629 2.95504 64.6516 4.55517Z" fill="#3F1212"/>
</svg>
