<svg width="67" height="67" viewBox="0 0 67 67" fill="none" xmlns="http://www.w3.org/2000/svg">
<path d="M32.3949 0C34.8545 0 37.314 0 39.848 0C39.8539 1.04956 39.8597 2.09912 39.8657 3.18048C39.8729 4.02497 39.8809 4.86942 39.8895 5.71389C39.8984 6.60112 39.9057 7.48828 39.9092 8.37557C39.9141 9.39704 39.9247 10.4183 39.9363 11.4397C39.9365 11.7529 39.9368 12.0662 39.9371 12.3889C39.9804 15.3105 40.5421 17.6416 42.2971 19.7749C43.9546 21.4583 45.7056 21.6835 47.8411 21.6577C49.8517 21.4802 51.3788 20.4145 52.7216 18.6901C53.669 17.1784 54.1278 15.5492 54.1487 13.6871C54.1532 13.3815 54.1577 13.076 54.1623 12.7612C54.1649 12.4354 54.1675 12.1095 54.1702 11.7739C54.1746 11.4372 54.1789 11.1005 54.1835 10.7537C54.1946 9.86308 54.204 8.97251 54.2124 8.08186C54.2215 7.17127 54.233 6.26072 54.2443 5.35016C54.2663 3.56679 54.2843 1.78345 54.3025 0C57.1347 0 59.9669 0 62.8849 0C63.0246 1.06687 63.0246 1.06687 63.1672 2.15528C63.4177 4.03325 63.7019 5.90031 64.0141 7.7656C64.3071 9.51635 64.5744 11.267 64.8046 13.0304C65.0399 14.8319 65.3125 16.6213 65.6092 18.4104C65.6677 18.7647 65.6677 18.7647 65.7273 19.1261C65.8809 20.0561 66.0347 20.986 66.1889 21.9158C66.9853 27.0543 67.014 32.2259 66.996 37.4296C66.9931 38.4035 66.9929 39.3773 66.9924 40.3512C66.991 42.1857 66.9873 44.0203 66.9827 45.8549C66.9777 47.9475 66.9752 50.0402 66.9729 52.1328C66.9683 56.4287 66.9603 60.7246 66.9502 65.0205C66.6975 64.7697 66.445 64.5186 66.1925 64.2674C66.0519 64.1276 65.9112 63.9878 65.7663 63.8437C65.2867 63.3573 64.8364 62.8455 64.3909 62.3171C64.2248 62.1215 64.0587 61.9258 63.8875 61.7243C63.7197 61.5253 63.5519 61.3263 63.3789 61.1212C63.0392 60.7185 62.699 60.3165 62.3582 59.915C62.2098 59.739 62.0613 59.5629 61.9084 59.3815C61.1984 58.6022 60.6596 58.6688 59.708 58.6677C59.4353 58.6674 59.1627 58.667 58.8818 58.6667C58.5957 58.6677 58.3097 58.6687 58.015 58.6698C57.7281 58.6688 57.4411 58.6677 57.1455 58.6667C56.737 58.6672 56.737 58.6672 56.3202 58.6677C55.9431 58.6682 55.9431 58.6682 55.5583 58.6686C54.9952 58.6263 54.9952 58.6263 54.7542 58.9659C54.745 59.4923 54.7446 60.019 54.7542 60.5454C54.917 60.5423 55.0798 60.5393 55.2475 60.5361C55.9914 60.5283 56.7346 60.5367 57.4786 60.5454C57.7346 60.5403 57.9907 60.5352 58.2545 60.5299C60.1325 60.5682 60.1325 60.5682 60.9151 61.2701C61.3096 61.7977 61.6463 62.3348 61.9815 62.9145C62.3534 63.3584 62.7293 63.7979 63.1107 64.2307C63.4872 64.6695 63.8636 65.1082 64.24 65.5469C64.4985 65.8401 64.4985 65.8401 64.7623 66.1392C65.1434 66.5999 65.1434 66.5999 65.1434 66.8631C59.9262 66.8631 54.7091 66.8631 49.3338 66.8631C49.8555 65.647 50.3772 64.4308 50.9148 63.1778C51.0874 62.1714 51.17 61.3975 51.1734 60.3923C51.1749 60.1041 51.1763 59.8159 51.1778 59.5189C51.178 59.2098 51.1783 58.9008 51.1785 58.5824C51.1793 58.262 51.1801 57.9417 51.1808 57.6116C51.182 56.9343 51.1825 56.257 51.1825 55.5797C51.183 54.5468 51.1871 53.514 51.1913 52.481C51.192 51.8221 51.1925 51.1631 51.1927 50.5042C51.1951 50.043 51.1951 50.043 51.1976 49.5725C51.189 45.9971 50.3797 42.9856 48.1763 40.391C47.4351 39.5691 47.4351 39.5691 46.5978 38.895C46.1719 38.4331 46.1719 38.4331 46.0558 37.6994C46.0539 37.4091 46.052 37.1188 46.0501 36.8198C46.0449 36.504 46.0397 36.1883 46.0343 35.8629C46.0331 35.5329 46.0319 35.2029 46.0307 34.8629C46.025 34.21 46.0174 33.557 46.0078 32.9041C46.0064 32.6141 46.0051 32.3241 46.0037 32.0253C46.0069 31.285 46.0069 31.285 45.4943 30.7992C45.0293 30.7123 45.0293 30.7123 44.4894 30.7152C44.2814 30.71 44.0734 30.7048 43.8592 30.6994C43.6342 30.6963 43.4093 30.6933 43.1776 30.6902C42.8326 30.6825 42.8326 30.6825 42.4807 30.6747C41.7443 30.6589 41.008 30.6468 40.2715 30.6346C39.773 30.6246 39.2746 30.6143 38.7761 30.6038C37.5525 30.5785 36.3289 30.5561 35.1052 30.5359C35.1413 30.3814 35.1775 30.227 35.2147 30.0678C35.9817 26.2107 35.0385 21.772 33.4748 18.3641C32.7152 16.9914 31.7641 15.6221 30.6261 14.652C30.3623 14.215 30.3623 14.215 30.4187 13.3728C30.4746 13.0427 30.5305 12.7125 30.5881 12.3723C30.7019 11.3397 30.8149 10.307 30.9269 9.27409C31.0398 8.4237 31.0398 8.4237 31.2657 7.89722C31.339 7.36109 31.4033 6.82326 31.4633 6.28487C31.7213 4.18024 32.0588 2.08958 32.3949 0Z" fill="#3F1212"/>
<path d="M14.0355 13.3018C14.3253 13.2998 14.615 13.2978 14.9136 13.2958C15.5234 13.2923 16.1332 13.2918 16.7431 13.2934C17.5153 13.2949 18.2872 13.2869 19.0593 13.2762C19.8079 13.2677 20.5565 13.2689 21.3051 13.2689C21.5774 13.2646 21.8497 13.2603 22.1302 13.2559C25.043 13.283 27.5344 14.278 29.6854 16.5841C29.8237 16.7154 29.962 16.8468 30.1045 16.9821C32.1886 19.111 33.3801 22.8072 33.5875 25.96C33.6511 28.8098 33.6511 28.8098 32.8473 30.0094C31.9954 30.7099 31.0373 30.6231 30.0357 30.6356C29.7602 30.6423 29.7602 30.6423 29.4791 30.6492C28.8939 30.6631 28.3086 30.6738 27.7233 30.684C27.1356 30.6955 26.548 30.7078 25.9603 30.7215C25.5949 30.73 25.2294 30.7371 24.8639 30.7427C24.045 30.6717 24.045 30.6717 23.3616 31.0624C23.3506 31.5866 23.3533 32.1113 23.3616 32.6356C23.3613 32.959 23.361 33.2824 23.3607 33.6156C23.3613 34.2984 23.3688 34.9813 23.3836 35.6639C23.3639 38.114 23.3639 38.114 22.6979 39.0454C22.1582 39.5282 22.1582 39.5282 21.6225 39.9077C19.9516 41.0917 18.8414 43.3419 18.2688 45.4764C18.1396 46.2261 18.1347 46.9347 18.1306 47.6997C18.1284 48.0302 18.1263 48.3606 18.124 48.701C18.1229 49.0611 18.122 49.4212 18.1211 49.7812C18.1198 50.1524 18.1185 50.5236 18.1172 50.8948C18.1148 51.6728 18.1135 52.4508 18.1127 53.2288C18.1115 54.2213 18.1061 55.2137 18.0996 56.2062C18.0954 56.9732 18.0943 57.7401 18.0939 58.5071C18.0932 58.8727 18.0914 59.2383 18.0884 59.6039C18.0678 62.3293 18.1859 64.2021 19.7479 66.3366C19.7479 66.5104 19.7479 66.6841 19.7479 66.8631C17.8062 66.8876 15.8645 66.9062 13.9226 66.9177C13.0208 66.9231 12.1191 66.9306 11.2173 66.9425C10.346 66.954 9.47473 66.9603 8.60336 66.963C8.272 66.9649 7.94065 66.9687 7.60933 66.9744C5.43163 67.0105 3.88457 66.9212 2.188 65.1685C2.0203 64.9459 1.85261 64.7233 1.67983 64.4939C1.44226 64.1926 1.44226 64.1926 1.1999 63.8852C0.214216 62.2385 -0.00420453 60.6679 0.00888432 58.715C0.00823608 58.4984 0.00758785 58.2819 0.00691997 58.0588C0.00646207 57.6048 0.00768996 57.1509 0.0105385 56.697C0.0141874 56.0026 0.0105531 55.3086 0.00623762 54.6142C0.00668504 54.1713 0.0075525 53.7285 0.00888432 53.2856C0.00751279 53.0789 0.00614126 52.8721 0.00472818 52.6591C0.0173889 51.5126 0.0641476 50.8278 0.776426 50.0157C1.36074 49.8826 1.36074 49.8826 2.06939 49.8803C2.33466 49.8769 2.59994 49.8734 2.87325 49.8698C3.15981 49.8711 3.44637 49.8724 3.74161 49.8738C4.19032 49.8691 4.63902 49.8643 5.08773 49.8594C5.71638 49.8538 6.34502 49.8529 6.97369 49.8521C8.07483 49.85 9.17592 49.843 10.277 49.8323C10.8634 49.8271 11.4498 49.8247 12.0362 49.8252C12.3008 49.8234 12.5653 49.8216 12.8379 49.8197C13.1884 49.8192 13.1884 49.8192 13.546 49.8187C14.1418 49.8166 14.1418 49.8166 14.5534 49.226C14.481 48.5408 14.481 48.5408 14.3275 47.9098C14.0751 47.9092 14.0751 47.9092 13.8176 47.9086C12.2324 47.9039 10.6473 47.893 9.06209 47.875C8.2471 47.866 7.43221 47.8594 6.61719 47.8583C5.83072 47.8572 5.04446 47.8497 4.25805 47.8378C3.81181 47.8327 3.36553 47.8342 2.91927 47.8358C2.64802 47.8306 2.37677 47.8254 2.09729 47.8201C1.85806 47.8184 1.61884 47.8166 1.37236 47.8148C0.776426 47.6465 0.776426 47.6465 0.360574 47.0551C0.0998638 46.3331 0.01321 45.8666 0.0112002 45.0902C0.00799653 44.7331 0.00799654 44.7331 0.00472818 44.3687C0.00678547 43.9878 0.00678547 43.9878 0.00888432 43.5992C0.00823608 43.3354 0.00758785 43.0716 0.00691997 42.7998C0.00645972 42.2432 0.00770423 41.6865 0.0105385 41.1298C0.014165 40.2788 0.0105704 39.4281 0.00623762 38.5771C0.00668537 38.0355 0.00755349 37.4939 0.00888432 36.9524C0.00751279 36.6984 0.00614126 36.4445 0.00472818 36.1828C0.00686394 35.9447 0.0089997 35.7067 0.0112002 35.4614C0.0117392 35.2531 0.0122783 35.0449 0.0128337 34.8304C0.131457 33.9906 0.29006 33.5487 0.776426 32.9051C1.42548 32.7688 1.94441 32.723 2.59487 32.7315C2.87258 32.7273 2.87258 32.7273 3.1559 32.7231C3.76822 32.7155 4.38026 32.7172 4.99261 32.7189C5.417 32.7155 5.84137 32.7115 6.26575 32.7069C7.38299 32.6964 8.50015 32.6937 9.61743 32.6926C10.7574 32.6902 11.8973 32.6803 13.0372 32.6711C15.2741 32.6541 17.511 32.6454 19.7479 32.6418C19.7576 32.1154 19.7572 31.5887 19.7479 31.0624C19.3532 30.6023 18.8379 30.7665 18.3119 30.7643C18.1385 30.7648 17.9651 30.7654 17.7864 30.766C17.6046 30.7655 17.4229 30.765 17.2356 30.7645C16.8395 30.7634 16.4434 30.7629 16.0473 30.7628C15.2066 30.7619 14.3659 30.7563 13.5253 30.7509C11.9582 30.7408 10.3912 30.7326 8.82415 30.7332C7.73578 30.7334 6.64756 30.7273 5.55924 30.7169C5.14376 30.7141 4.72826 30.7137 4.31278 30.7158C3.73188 30.7183 3.15142 30.7127 2.57056 30.7053C2.31181 30.7093 2.31181 30.7093 2.04784 30.7134C1.56804 30.7024 1.56804 30.7024 0.776426 30.5359C-0.112824 29.3019 -0.0115009 28.0535 0.0203533 26.5071C0.304887 22.982 1.92858 19.4831 4.1642 17.1106C4.96138 16.4256 5.78611 15.8341 6.64856 15.2679C6.80461 15.1624 6.96066 15.0569 7.12144 14.9481C9.31612 13.559 11.5754 13.3023 14.0355 13.3018Z" fill="#3F1212"/>
<path d="M25.1679 32.9053C31.354 32.9053 37.54 32.9053 43.9136 32.9053C43.9136 34.5558 43.9136 36.2063 43.9136 37.9068C42.6465 37.9068 41.3795 37.9068 40.0741 37.9068C40.0741 38.5149 40.0741 39.123 40.0741 39.7495C40.296 40.0692 40.296 40.0692 40.718 40.0209C40.9884 40.0077 40.9884 40.0077 41.2642 39.9943C45.1438 39.9139 45.1438 39.9139 46.6097 41.5429C48.6693 43.9941 49.3159 46.7555 49.2881 50.1167C49.289 50.4718 49.2904 50.8269 49.2921 51.182C49.294 51.9205 49.2912 52.6588 49.2848 53.3973C49.2771 54.3368 49.2816 55.2755 49.2897 56.215C49.2946 56.9463 49.293 57.6775 49.2895 58.4089C49.2882 58.9212 49.2922 59.4336 49.2964 59.9459C49.2626 62.455 48.7284 64.1748 47.1743 65.942C45.894 66.8603 44.8506 66.9416 43.3804 66.9398C43.1691 66.9416 42.9578 66.9433 42.7401 66.9452C42.0425 66.9502 41.3451 66.9512 40.6475 66.9518C40.1618 66.9534 39.676 66.9552 39.1902 66.9571C38.1722 66.9602 37.1542 66.9612 36.1362 66.9609C34.8333 66.9608 33.5304 66.968 32.2275 66.9771C31.2242 66.9829 30.2209 66.984 29.2177 66.9837C28.7374 66.9843 28.2571 66.9867 27.7768 66.9907C27.1043 66.9959 26.432 66.9944 25.7595 66.9912C25.5621 66.9942 25.3648 66.9971 25.1614 67.0002C23.6245 66.9818 22.6736 66.5233 21.5216 65.2931C21.3973 65.1218 21.273 64.9504 21.1449 64.7738C21.0177 64.6032 20.8905 64.4325 20.7594 64.2566C20.0956 63.1604 19.9164 62.1882 19.9077 60.859C19.9048 60.5575 19.9019 60.256 19.899 59.9454C19.8985 59.6216 19.898 59.2977 19.8974 58.964C19.8959 58.628 19.8944 58.292 19.8929 57.9459C19.8906 57.2347 19.8893 56.5236 19.8896 55.8124C19.8897 54.9087 19.8835 54.0053 19.8757 53.1017C19.8694 52.2315 19.8697 51.3613 19.8692 50.491C19.8643 50.01 19.8643 50.01 19.8594 49.5193C19.8713 46.8888 20.2515 44.4863 21.8648 42.53C22.0296 42.324 22.1944 42.1181 22.3642 41.9058C23.9106 40.2697 24.8747 40.123 26.95 40.1341C27.2077 40.131 27.4654 40.1279 27.7309 40.1247C28.5516 40.1154 29.3723 40.113 30.1931 40.1115C31.0171 40.1072 31.841 40.1014 32.665 40.0926C33.1772 40.0874 33.6895 40.085 34.2017 40.0855C34.4325 40.0837 34.6632 40.0819 34.9009 40.08C35.1044 40.0797 35.308 40.0793 35.5177 40.079C36.0563 40.0664 36.0563 40.0664 36.4605 39.4863C36.3859 39.0519 36.3114 38.6176 36.2346 38.1701C30.7566 38.0398 30.7566 38.0398 25.1679 37.9068C25.1679 36.2563 25.1679 34.6058 25.1679 32.9053Z" fill="#3F1212"/>
<path d="M11.6172 2.36914C15.7909 2.36914 19.9647 2.36914 24.2649 2.36914C24.2649 5.23583 24.2649 8.10252 24.2649 11.0561C20.0911 11.0561 15.9174 11.0561 11.6172 11.0561C11.6172 8.18939 11.6172 5.3227 11.6172 2.36914Z" fill="#3F1212"/>
<path d="M61.0781 40.2754C61.8968 40.3741 61.8968 40.3741 62.6591 40.5386C62.71 41.7505 62.7465 42.9616 62.7707 44.1746C62.7808 44.5854 62.7946 44.9962 62.8124 45.4067C62.9624 48.9619 62.2942 50.7351 60.2511 53.4006C60.1513 53.4996 60.0516 53.5986 59.9489 53.7007C59.2772 53.6295 59.0783 53.4757 58.5938 52.9109C58.6511 51.6854 58.9296 51.0788 59.6127 50.1716C60.7016 48.4418 60.6128 46.6882 60.5841 44.6189C60.5823 43.9086 60.5852 43.1986 60.5885 42.4883C60.5855 42.1769 60.5825 41.8656 60.5795 41.5448C60.6264 40.8019 60.6264 40.8019 61.0781 40.2754Z" fill="#FCDE5A"/>
<path d="M43.2797 43.8623C44.1834 44.0027 44.6937 44.4945 45.2701 45.2772C46.3711 47.2304 46.3022 49.2989 46.2723 51.5621C46.2739 51.9089 46.2755 52.2557 46.2771 52.613C46.2627 55.1353 46.2627 55.1353 45.8647 55.7823C45.4959 56.0701 45.4959 56.0701 44.9172 56.0207C44.3666 55.8069 44.3666 55.8069 43.9149 55.2804C43.8644 54.5249 43.8644 54.5249 43.8691 53.5662C43.8664 53.2199 43.8638 52.8736 43.8611 52.5169C43.8588 51.9669 43.8585 51.4173 43.863 50.8673C43.9434 48.3848 43.9434 48.3848 43.0001 46.2572C42.8757 46.1313 42.7513 46.0054 42.6231 45.8757C42.5277 45.7651 42.4323 45.6545 42.334 45.5405C42.3522 44.5664 42.42 44.0341 43.2797 43.8623Z" fill="#FCDE5A"/>
<path d="M11.8429 18.1629C12.2664 18.4755 12.2664 18.4755 12.5204 18.9526C12.5028 19.6004 12.5028 19.6004 12.2946 20.2688C11.7352 20.6297 11.7352 20.6297 11.0242 20.9104C9.02587 21.8018 8.03754 22.9015 6.99943 25.0709C6.6483 25.5336 6.6483 25.5336 6.07132 25.6344C5.51904 25.5336 5.51904 25.5336 5.06734 25.0071C5.03537 23.1814 5.82903 22.084 6.87415 20.7953C8.18726 19.377 9.93199 17.781 11.8429 18.1629Z" fill="#FCDE5A"/>
<path d="M24.2786 51.1344C24.7162 51.3318 24.7162 51.3318 25.1679 51.8583C25.272 53.0328 25.241 54.2156 25.2384 55.3956C25.2421 55.7256 25.2457 56.0556 25.2495 56.3956C25.2496 56.7113 25.2498 57.0271 25.2499 57.3524C25.2509 57.7878 25.2509 57.7878 25.2519 58.232C25.1679 58.9658 25.1679 58.9658 24.861 59.4656C24.4903 59.7555 24.4903 59.7555 23.8974 59.6897C23.361 59.4923 23.361 59.4923 23.1352 59.229C23.0806 58.1457 23.0836 57.0615 23.0809 55.9765C23.0787 55.4316 23.0717 54.887 23.0646 54.3421C23.0634 54.0006 23.0623 53.659 23.0611 53.3071C23.059 52.9918 23.0569 52.6764 23.0547 52.3514C23.0813 52.1018 23.1078 51.8522 23.1352 51.5951C23.8127 51.0686 23.8127 51.0686 24.2786 51.1344Z" fill="#FCDE5A"/>
<path d="M44.5916 58.4395C45.6205 58.5857 45.6205 58.5857 45.9467 58.9659C45.975 59.7557 45.975 59.7557 45.9467 60.5454C45.7209 60.8086 45.7209 60.8086 45.0574 60.858C44.3658 60.8086 44.3658 60.8086 43.9141 60.2821C43.9885 59.4142 44.0547 59.0653 44.5916 58.4395Z" fill="#FCDE5A"/>
</svg>
