<svg width="77" height="50" viewBox="0 0 77 50" fill="none" xmlns="http://www.w3.org/2000/svg">
<path d="M19.9214 0.193359C23.3666 0.193359 26.8118 0.193359 30.3615 0.193359C31.0733 4.17197 31.0733 4.17197 30.9942 5.98043C31.2161 6.02021 31.4379 6.06 31.6665 6.10099C32.576 6.30193 32.576 6.30193 33.446 6.73395C34.528 7.07624 34.528 7.07624 35.5593 6.30444C35.928 6.00214 36.2912 5.69288 36.6492 5.37761C36.9306 5.14324 36.9306 5.14324 37.2177 4.90414C37.6789 4.51859 38.1336 4.12499 38.587 3.7299C40.485 5.32333 42.3228 7.00675 43.9652 8.87396C43.9652 9.08615 43.9652 9.29834 43.9652 9.51697C43.3284 10.0099 42.694 10.4605 42.025 10.9047C41.7263 11.1056 41.7263 11.1056 41.4215 11.3105C40.9983 11.594 40.5743 11.8764 40.1497 12.1577C39.5033 12.5869 38.8609 13.0218 38.2187 13.4573C37.807 13.732 37.3951 14.0065 36.9829 14.2805C36.792 14.4104 36.6011 14.5404 36.4045 14.6743C35.2402 15.4367 34.2807 15.8602 32.8924 15.947C32.1509 15.5791 32.1509 15.5791 31.4687 15.0428C28.7213 12.9134 25.447 13.0706 22.136 13.375C21.0337 13.6351 20.2192 14.0159 19.2887 14.661C19.0701 14.8011 18.8515 14.9412 18.6263 15.0855C16.0908 16.845 14.3354 19.3383 13.5941 22.3771C13.1428 25.9521 13.8002 29.3179 15.8037 32.3199C17.9581 34.9401 20.8073 36.5719 24.1775 36.9264C27.8245 37.0905 31.1372 35.7919 33.8415 33.3082C35.5427 31.309 36.6426 28.9514 36.7283 26.2954C37.0051 25.2706 37.0051 25.2706 37.5452 24.8462C40.9489 23.1136 45.0906 24.1201 48.7107 24.6276C49.0239 24.7337 49.3371 24.8398 49.6598 24.9491C49.6598 26.7528 49.6598 28.5564 49.6598 30.4147C47.7806 30.5208 45.9014 30.6269 43.9652 30.7362C43.8021 31.1871 43.6389 31.638 43.4709 32.1026C43.3332 32.4831 43.3332 32.4831 43.1928 32.8712C42.9905 33.7395 42.9934 34.0965 43.3325 34.9158C43.9731 35.7587 44.659 36.5481 45.3518 37.3471C45.8634 38.1308 45.8634 38.1308 45.8299 38.7226C45.4289 39.7067 44.8092 40.2745 44.0628 41.0193C43.9158 41.1673 43.7688 41.3154 43.6173 41.4679C43.1489 41.9386 42.6772 42.4058 42.2054 42.873C41.8866 43.1922 41.5679 43.5116 41.2495 43.8312C40.4699 44.6128 39.6874 45.3914 38.9033 46.1684C37.0964 44.9551 37.0964 44.9551 36.2748 44.3009C35.5835 43.7633 34.9548 43.3125 34.1579 42.9534C33.2419 43.0843 32.7569 43.4218 31.9433 43.9179C31.6301 43.9179 31.3169 43.9179 30.9942 43.9179C30.975 44.2548 30.9559 44.5917 30.9361 44.9389C30.9094 45.3822 30.8826 45.8255 30.8558 46.2689C30.8434 46.4908 30.8309 46.7127 30.8181 46.9414C30.7572 47.9275 30.6705 48.7628 30.3615 49.7049C26.9162 49.7049 23.471 49.7049 19.9214 49.7049C19.8757 48.8296 19.83 47.9543 19.783 47.0525C19.6405 45.1346 19.6405 45.1346 18.6572 43.5675C17.6376 43.0894 16.9121 42.7847 15.821 43.1756C15.0061 43.7071 14.2652 44.3006 13.515 44.9226C13.2328 45.1555 12.9506 45.3884 12.6598 45.6284C12.4461 45.8066 12.2324 45.9848 12.0123 46.1684C10.852 45.6735 10.1186 44.9612 9.23911 44.056C8.95772 43.768 8.67633 43.4799 8.38641 43.1832C8.09523 42.8819 7.80405 42.5806 7.50404 42.2702C7.20512 41.9632 6.90606 41.6563 6.60685 41.3496C5.87628 40.5996 5.14723 39.8481 4.41948 39.0953C4.87479 37.8684 5.36566 37.0477 6.21881 36.0611C7.11974 34.9519 7.11974 34.9519 7.28654 33.5494C6.96983 32.7163 6.64404 31.8869 6.31767 31.0577C4.54286 30.8455 2.76805 30.6333 0.939453 30.4147C0.939453 26.8074 0.939453 23.2002 0.939453 19.4836C2.71426 19.2714 4.48908 19.0592 6.31767 18.8406C7.33401 16.6247 7.33401 16.6247 6.9504 14.661C6.37298 13.7823 6.37298 13.7823 5.66517 12.953C5.43312 12.6691 5.20107 12.3853 4.96199 12.0928C4.78296 11.8793 4.60393 11.6659 4.41948 11.446C4.90642 10.2669 5.60738 9.52153 6.4981 8.62781C6.78153 8.34185 7.06496 8.05588 7.35698 7.76126C7.65346 7.46535 7.94994 7.16944 8.25541 6.86456C8.5575 6.56079 8.85945 6.25687 9.16125 5.9528C9.89928 5.21037 10.6387 4.46948 11.3795 3.7299C12.4822 4.2652 13.357 4.9124 14.3059 5.69911C14.5881 5.93202 14.8703 6.16494 15.1611 6.40491C15.3748 6.58312 15.5885 6.76133 15.8086 6.94494C16.1414 6.79574 16.1414 6.79574 16.4809 6.64353C17.4187 6.29131 18.3006 6.12053 19.2887 5.98043C19.3174 5.51543 19.3174 5.51543 19.3468 5.04103C19.3733 4.63488 19.3998 4.22873 19.4271 3.81028C19.4528 3.40744 19.4785 3.00461 19.5049 2.58957C19.605 1.47937 19.605 1.47937 19.9214 0.193359Z" fill="#3F1212"/>
<path d="M64.0157 4.17323C64.6472 4.18937 65.2787 4.20404 65.9102 4.21719C67.4546 4.25255 68.9973 4.30798 70.5407 4.37417C71.1879 5.51148 71.8348 6.64897 72.4813 7.78662C72.7006 8.17233 72.92 8.55799 73.1394 8.94359C73.6647 9.86663 74.1884 10.7904 74.7096 11.7159C75.0687 12.3495 75.4329 12.9802 75.8048 13.6063C76.0259 13.9854 76.0259 13.9854 76.2514 14.3722C76.3796 14.5865 76.5078 14.8008 76.6398 15.0216C76.9371 15.8098 76.8467 16.1285 76.5517 16.9128C76.2786 17.4641 75.9887 18.0068 75.6879 18.5429C75.5119 18.8579 75.3359 19.1729 75.1546 19.4974C74.9697 19.8248 74.7847 20.1522 74.5942 20.4895C74.4154 20.8095 74.2365 21.1294 74.0523 21.4591C73.6924 22.1009 73.325 22.7385 72.9503 23.3715C72.4183 24.2842 72.4183 24.2842 72.1123 25.2451C71.7013 26.288 71.4091 26.8156 70.5407 27.5224C68.7092 28.0935 66.7752 28.0519 64.877 28.0299C63.9597 28.0248 63.0505 28.0624 62.1342 28.1033C58.037 28.1753 58.037 28.1753 56.7166 27.0753C55.7884 25.9408 55.2114 24.6624 54.6625 23.3057C54.3081 22.4685 53.8419 21.7246 53.3557 20.9605C53.0597 20.4621 52.7639 19.9635 52.4683 19.4648C52.3126 19.2113 52.1568 18.9579 51.9963 18.6968C51.8511 18.4492 51.7059 18.2015 51.5563 17.9464C51.427 17.7313 51.2977 17.5162 51.1644 17.2945C50.7389 16.0391 51.0786 15.0116 51.6258 13.845C51.7843 13.5793 51.9429 13.3135 52.1063 13.0397C52.2822 12.7413 52.4582 12.4429 52.6395 12.1355C52.9169 11.6754 52.9169 11.6754 53.1999 11.2061C53.3788 10.9044 53.5576 10.6027 53.7418 10.2919C54.1018 9.6851 54.4694 9.08298 54.8445 8.48575C55.3807 7.6094 55.3807 7.6094 55.6756 6.65374C57.0417 3.10352 60.8719 4.03442 64.0157 4.17323Z" fill="#3F1212"/>
<path d="M69.9773 32.1826C70.2446 32.1832 70.5119 32.1838 70.7873 32.1844C71.0797 32.1842 71.3721 32.184 71.6734 32.1838C72.1304 32.1934 72.1304 32.1934 72.5965 32.2033C73.0535 32.1998 73.0535 32.1998 73.5197 32.1964C75.7546 32.2169 75.7546 32.2169 76.4292 32.7399C76.9957 33.4748 76.9877 33.8918 76.9903 34.8192C76.9933 35.125 76.9963 35.4308 76.9994 35.7458C76.9974 36.0754 76.9955 36.405 76.9935 36.7445C76.9944 37.0834 76.9953 37.4223 76.9963 37.7714C76.9969 38.4881 76.9952 39.2048 76.9912 39.9215C76.9861 41.0203 76.9912 42.1186 76.9972 43.2173C76.9966 43.913 76.9954 44.6088 76.9935 45.3045C76.9964 45.7989 76.9964 45.7989 76.9994 46.3032C76.9964 46.609 76.9934 46.9147 76.9903 47.2298C76.9895 47.4989 76.9888 47.768 76.988 48.0452C76.84 48.899 76.5882 49.1837 75.9184 49.7051C74.8801 49.9069 73.8297 49.8541 72.7745 49.8458C72.4876 49.8522 72.2007 49.8586 71.9051 49.8652C69.8267 49.8637 69.8267 49.8637 68.7643 49.1488C68.0264 47.9215 68.2438 46.938 68.3256 45.5256C66.864 45.5256 65.4024 45.5256 63.8965 45.5256C64.1137 43.4191 64.3913 41.3295 64.7072 39.2362C64.751 38.9425 64.7949 38.6489 64.84 38.3464C64.9468 37.6315 65.0543 36.9167 65.1619 36.202C66.206 36.202 67.25 36.202 68.3256 36.202C68.306 35.8041 68.2865 35.4062 68.2663 34.9963C68.2235 34.1258 68.2766 33.7158 68.7114 32.9539C69.2747 32.3439 69.2747 32.3439 69.9773 32.1826Z" fill="#3F1212"/>
<path d="M65.8447 11.095C67.2616 11.9348 68.2681 12.7925 68.9577 14.3402C69.2043 15.9401 69.1495 17.158 68.4436 18.6202C68.1957 18.9054 67.9477 19.1905 67.6923 19.4843C67.4313 19.7893 67.1703 20.0943 66.9014 20.4086C65.6964 21.3738 64.3751 21.2955 62.8974 21.2249C61.145 20.9656 60.3899 20.1941 59.3481 18.8011C58.6241 17.3636 58.5803 15.9162 58.834 14.3402C60.1778 11.6091 62.8609 9.82291 65.8447 11.095Z" fill="#FCDE5A"/>
<path d="M49.9766 36.2021C51.5426 36.2021 53.1086 36.2021 54.722 36.2021C54.559 39.4175 54.1441 42.3884 53.4566 45.5258C52.3082 45.5258 51.1598 45.5258 49.9766 45.5258C49.9766 42.449 49.9766 39.3722 49.9766 36.2021Z" fill="#3F1212"/>
<path d="M58.5174 36.2021C59.5614 36.2021 60.6054 36.2021 61.6811 36.2021C61.2635 39.2789 60.8459 42.3557 60.4156 45.5258C59.3716 45.5258 58.3276 45.5258 57.252 45.5258C57.6221 42.4086 58.0264 39.3026 58.5174 36.2021Z" fill="#3F1212"/>
</svg>
