<svg width="89" height="60" viewBox="0 0 89 60" fill="none" xmlns="http://www.w3.org/2000/svg">
<path d="M51.9295 16.3426C54.978 17.162 57.4871 17.2405 60.5045 16.2356C61.6549 15.9326 62.5338 15.8298 63.6159 16.3524C67.7616 19.369 69.9092 22.9823 70.632 27.8693C70.9164 31.2147 70.6562 34.3021 69.6301 37.5268C68.5585 37.3805 67.5679 37.1979 66.5343 36.8904C65.012 36.5261 63.617 36.4892 62.053 36.4949C61.7721 36.4898 61.4912 36.4848 61.2018 36.4797C60.0025 36.4788 59.1716 36.4811 58.0962 37.0035C57.4025 37.7456 57.3647 38.4346 57.273 39.396C56.9562 39.4667 56.6393 39.5374 56.3129 39.6102C55.2047 39.9228 55.2047 39.9228 54.81 40.8368C54.7067 41.2031 54.7067 41.2031 54.6012 41.5767C53.2653 40.6421 51.9295 39.7075 50.5936 38.7729C51.2615 36.9038 51.2615 36.9038 51.5289 36.2977C52.5956 33.7419 52.7367 30.9956 51.7416 28.395C50.3143 25.5175 47.9826 23.7274 44.916 22.4759C44.6956 22.4052 44.4751 22.3346 44.248 22.2617C44.975 19.8004 46.8609 17.8011 49.1742 16.44C50.3802 15.9857 50.7252 15.9591 51.9295 16.3426Z" fill="#3F1212"/>
<path d="M38.2967 42.2182C40.5322 42.731 42.6567 42.7777 44.8301 42.0235C46.2483 41.5412 47.1072 41.427 48.5873 41.8872C51.2835 43.438 53.2002 45.4301 54.1996 48.2541C54.7196 50.3272 54.5988 52.1688 54.5988 54.3485C46.0023 54.3485 37.4058 54.3485 28.5488 54.3485C28.5488 46.893 28.5488 46.893 31.9851 43.6602C34.2052 41.7681 35.3499 41.3019 38.2967 42.2182Z" fill="#3F1212"/>
<path d="M21.8709 16.3416C24.8889 17.3183 27.8133 17.2659 30.8034 16.204C32.1276 15.8979 33.0252 16.2357 34.1862 16.8478C36.0837 18.193 37.6758 19.5288 38.5696 21.6376C38.5696 21.8432 38.5696 22.0488 38.5696 22.2607C38.3074 22.3667 38.0452 22.4727 37.7751 22.5819C34.4826 23.9988 32.1998 25.8135 30.8712 29.0292C29.9547 31.9775 30.4096 34.8343 31.8901 37.5257C32.0149 37.7595 32.1398 37.9932 32.2684 38.234C32.4118 38.5002 32.4118 38.5002 32.558 38.7719C32.2674 38.97 32.2674 38.97 31.971 39.1722C30.2616 40.3694 28.8795 41.5733 27.5484 43.1333C27.1952 42.7942 27.1952 42.7942 26.8348 42.4482C25.9205 41.5953 24.9438 40.8342 23.9373 40.0764C23.4485 39.7071 23.4485 39.7071 22.9498 39.3304C22.7039 39.1461 22.4581 38.9618 22.2048 38.7719C22.3039 38.5442 22.4029 38.3165 22.5049 38.0819C23.827 34.9638 24.6145 31.9376 23.2903 28.686C21.758 25.5684 19.9744 23.8444 16.5482 22.6111C15.8749 22.386 15.2006 22.1638 14.5234 21.9491C15.3354 19.3644 17.0893 17.6034 19.5865 16.271C20.4853 15.9186 20.9691 16.018 21.8709 16.3416Z" fill="#3F1212"/>
<path d="M9.90884 42.2197C12.1444 42.7325 14.2689 42.7792 16.4422 42.025C17.849 41.5433 18.729 41.4478 20.1994 41.8887C22.0825 42.9706 23.9636 44.3238 24.8751 46.2501C25.0308 47.658 24.9269 49.0278 24.8124 50.4364C24.7772 51.0011 24.7772 51.0011 24.7413 51.5772C24.6825 52.5022 24.6156 53.426 24.5411 54.35C21.4609 54.3644 18.3808 54.3755 15.3006 54.3823C13.8705 54.3855 12.4404 54.3899 11.0102 54.397C9.63084 54.4037 8.25148 54.4075 6.87207 54.4091C6.34502 54.4102 5.81797 54.4125 5.29093 54.4158C4.55441 54.4204 3.81799 54.421 3.08145 54.4207C2.66169 54.4221 2.24192 54.4235 1.80944 54.4249C0.828915 54.35 0.828915 54.35 0.160966 53.7269C-0.274521 50.4537 0.0885274 47.7655 2.16481 45.004C4.44506 42.4001 6.32679 41.1059 9.90884 42.2197Z" fill="#3F1212"/>
<path d="M86.3277 38.4609C86.3277 44.4237 86.3277 50.3864 86.3277 56.5298C83.0214 56.684 83.0214 56.684 79.6483 56.8413C77.6538 57.2767 76.1108 57.826 74.3047 58.7105C74.0842 58.7105 73.8638 58.7105 73.6367 58.7105C73.6367 52.8506 73.6367 46.9907 73.6367 40.9532C80.1254 38.4609 80.1254 38.4609 86.3277 38.4609Z" fill="#3F1212"/>
<path d="M59.6074 38.4609C65.7599 38.4609 65.7599 38.4609 68.2073 39.3566C68.4587 39.4405 68.7101 39.5245 68.9691 39.6109C70.1272 40.0036 71.1918 40.4371 72.2984 40.9532C72.2984 46.8131 72.2984 52.673 72.2984 58.7105C70.2946 58.0875 70.2946 58.0875 69.457 57.765C65.9812 56.4922 63.7484 56.7229 59.6074 56.5298C59.6074 50.5671 59.6074 44.6043 59.6074 38.4609Z" fill="#3F1212"/>
<path d="M44.6838 26.175C46.3265 27.0623 47.4189 28.3302 48.3783 29.8355C48.9065 31.9539 48.8243 33.8315 47.6517 35.7351C46.5784 37.1961 45.3772 38.2029 43.5775 38.7725C41.0068 39.0262 38.9589 39.0565 36.898 37.5264C35.2529 36.0204 34.24 34.668 34.0801 32.4835C34.1324 30.5363 35.0095 28.7955 36.3944 27.3481C38.6938 25.4588 41.8718 24.9996 44.6838 26.175Z" fill="#3F1212"/>
<path d="M15.7732 26.039C17.9584 27.2149 19.4744 28.3291 20.1984 30.673C20.4593 32.5723 20.1926 34.284 19.1965 35.969C17.789 37.484 16.4262 38.6777 14.2234 38.8471C11.882 38.8953 10.3665 38.9055 8.50931 37.5267C6.86419 36.0207 5.85136 34.6683 5.69141 32.4838C5.74359 30.5398 6.615 28.7804 8.01748 27.3484C10.3739 25.4467 12.8197 25.2124 15.7732 26.039Z" fill="#3F1212"/>
<path d="M30.2816 0.972603C31.7861 2.00261 33.1327 3.40796 33.5613 5.12717C33.8141 7.63584 33.3764 9.35209 31.787 11.4357C30.5638 12.6032 29.4961 13.1544 27.7494 13.3621C25.0743 13.3648 23.355 13.338 21.3869 11.5367C19.5688 9.65068 19.3826 7.92097 19.43 5.46791C19.5673 4.19957 19.944 3.56713 20.8703 2.63492C21.1002 2.38614 21.1002 2.38614 21.3347 2.13233C23.6647 -0.264153 27.2798 -0.625805 30.2816 0.972603Z" fill="#3F1212"/>
<path d="M60.3375 0.973485C61.8421 2.00349 63.1886 3.40885 63.6173 5.12806C63.8701 7.63672 63.4324 9.35297 61.843 11.4366C60.6198 12.6041 59.5521 13.1553 57.8053 13.363C55.1302 13.3657 53.411 13.3389 51.4429 11.5376C49.6251 9.652 49.4369 7.92168 49.4873 5.46879C49.6798 3.6683 50.7124 2.78549 52.0743 1.62332C54.5389 -0.22946 57.5402 -0.516055 60.3375 0.973485Z" fill="#3F1212"/>
<path d="M56.9414 41.5752C57.3823 41.678 57.8231 41.7808 58.2773 41.8867C58.2773 47.1298 58.2773 52.3729 58.2773 57.7749C61.0326 57.7749 63.7879 57.7749 66.6267 57.7749C67.839 58.1861 69.0513 58.5973 70.3004 59.021C70.3004 59.1238 70.3004 59.2266 70.3004 59.3325C65.8919 59.3325 61.4835 59.3325 56.9414 59.3325C56.9414 53.4726 56.9414 47.6127 56.9414 41.5752Z" fill="#3F1212"/>
<path d="M88.9996 41.5752C88.9996 47.4351 88.9996 53.295 88.9996 59.3325C84.5911 59.3325 80.1827 59.3325 75.6406 59.3325C79.2297 56.8216 82.6547 57.7749 87.3297 57.7749C87.4399 52.5318 87.5501 47.2887 87.6637 41.8867C88.3316 41.5752 88.3316 41.5752 88.9996 41.5752Z" fill="#3F1212"/>
</svg>
