<svg width="72" height="72" viewBox="0 0 72 72" fill="none" xmlns="http://www.w3.org/2000/svg">
<path d="M35.7328 0.0078745C35.9232 0.0056636 36.1136 0.0034527 36.3098 0.00117481C41.9036 -0.0480219 46.9582 1.45075 51.9624 3.96254C52.3408 4.14819 52.3408 4.14819 52.7269 4.33759C60.745 8.47751 66.6053 16.2767 69.4699 24.763C71.4887 31.0944 72.2423 40.7209 69.1829 46.8793C69.0055 46.8219 68.8282 46.7645 68.6455 46.7054C66.0235 45.9448 63.4829 45.9023 60.7776 45.8648C60.3185 45.8557 59.8594 45.8462 59.4003 45.8363C58.2877 45.8132 57.1752 45.7947 56.0625 45.7788C56.1148 45.623 56.167 45.4673 56.2209 45.3067C58.6145 38.132 58.7832 31.5284 55.3909 24.6085C52.5984 19.384 47.6867 15.5728 42.104 13.7589C36.2386 12.0686 29.9182 12.8393 24.5706 15.7137C19.2451 18.8266 15.4272 23.5566 13.7288 29.5475C12.3116 35.1809 13.2572 40.4002 15.0614 45.7788C14.7513 45.7829 14.4413 45.7869 14.1218 45.791C12.9618 45.8071 11.8019 45.8283 10.6419 45.851C10.1417 45.8601 9.64147 45.8679 9.14122 45.8741C8.41844 45.8835 7.69591 45.8979 6.97324 45.9132C6.64251 45.9158 6.64251 45.9158 6.30511 45.9185C4.73005 45.9587 3.40683 46.3044 1.94099 46.8793C1.7687 46.2951 1.59824 45.7104 1.42847 45.1255C1.33334 44.7999 1.2382 44.4744 1.14019 44.1389C1.04066 43.7691 0.943243 43.3987 0.847625 43.0278C0.796578 42.8326 0.745531 42.6374 0.692937 42.4363C0.19421 40.2801 0.192043 38.1112 0.19844 35.9094C0.19868 35.7084 0.198919 35.5075 0.199166 35.3004C0.232926 26.7001 3.03738 19.0968 8.50117 12.4909C8.70378 12.2448 8.90638 11.9986 9.11512 11.7451C14.2612 5.74409 22.4739 1.01567 30.3981 0.16907C32.1745 0.0386424 33.9524 0.0194198 35.7328 0.0078745Z" fill="#3F1212"/>
<path d="M33.9907 15.2071C34.2195 15.2068 34.4484 15.2064 34.6841 15.2061C34.9236 15.2071 35.163 15.2082 35.4097 15.2093C35.648 15.2082 35.8864 15.2072 36.132 15.2061C36.3612 15.2064 36.5904 15.2068 36.8266 15.2071C37.0364 15.2074 37.2462 15.2077 37.4623 15.2081C38.0235 15.2437 38.0235 15.2437 38.8435 15.5188C38.8324 15.8409 38.8212 16.163 38.8098 16.4949C38.7692 17.6874 38.7324 18.8799 38.6967 20.0726C38.6807 20.5892 38.6637 21.1059 38.6457 21.6224C38.6201 22.364 38.598 23.1055 38.5766 23.8472C38.5678 24.0791 38.559 24.3109 38.5499 24.5498C38.5354 25.1157 38.5502 25.6822 38.5702 26.248C39.06 26.8693 39.06 26.8693 39.7276 26.8046C40.8336 26.3927 41.4235 25.647 42.1919 24.7693C42.3471 24.597 42.5023 24.4247 42.6622 24.2472C43.8218 22.9492 44.9183 21.6084 45.9771 20.2257C46.491 19.6521 46.8847 19.3799 47.5904 19.0952C48.1666 19.6213 48.7416 20.1488 49.3159 20.677C49.4785 20.8253 49.6411 20.9735 49.8087 21.1262C50.6138 21.8686 51.3506 22.5788 51.9639 23.4969C51.5889 24.3669 51.1831 24.8707 50.4605 25.4742C49.5814 26.2228 48.7173 26.9829 47.8638 27.761C46.6895 28.8276 45.5044 29.8808 44.3103 30.9248C44.4456 31.6057 44.4456 31.6057 44.5837 32.3003C48.1918 32.3003 51.7999 32.3003 55.5173 32.3003C55.8337 32.9373 55.8259 33.3103 55.827 34.0187C55.8273 34.249 55.8277 34.4793 55.828 34.7166C55.827 34.9576 55.8259 35.1986 55.8248 35.4469C55.8259 35.6868 55.8269 35.9267 55.828 36.1738C55.8275 36.5199 55.8275 36.5199 55.827 36.8729C55.8267 37.0841 55.8263 37.2952 55.826 37.5128C55.7907 38.0776 55.7907 38.0776 55.5173 38.9029C52.7568 38.9287 50.0138 38.8307 47.2578 38.6772C46.955 38.663 46.6521 38.6488 46.3401 38.6342C46.0679 38.6198 45.7956 38.6054 45.5151 38.5906C44.806 38.5569 44.806 38.5569 44.3103 39.178C44.2957 39.9398 44.4505 40.3952 44.9407 40.978C45.4179 41.4495 45.9093 41.8975 46.4116 42.3417C46.5792 42.4946 46.7467 42.6474 46.9194 42.8049C47.7159 43.5275 48.5255 44.2289 49.3554 44.9123C49.5848 45.108 49.8142 45.3038 50.0505 45.5055C50.0505 45.5962 50.0505 45.687 50.0505 45.7806C48.8688 45.8147 47.6873 45.8396 46.5053 45.8561C46.1036 45.863 45.7019 45.8724 45.3003 45.8843C44.7215 45.9011 44.1431 45.9088 43.564 45.9149C43.2162 45.9221 42.8683 45.9293 42.5099 45.9367C41.3399 45.7409 40.9852 45.2765 40.2102 44.405C39.471 44.3337 39.471 44.3337 38.8435 44.6801C38.5275 45.2344 38.5275 45.2344 38.2968 45.7806C37.4029 45.8205 36.5092 45.8449 35.6147 45.8665C35.3608 45.8781 35.1069 45.8896 34.8454 45.9015C34.1479 45.9141 33.5151 45.9146 32.83 45.7806C32.246 45.0874 32.246 45.0874 32.01 44.405C31.1413 44.5022 30.7517 44.5521 30.1722 45.2365C29.3032 45.9963 28.7273 45.9068 27.5896 45.888C27.3098 45.8857 27.3098 45.8857 27.0243 45.8833C26.4309 45.8772 25.838 45.8634 25.2448 45.8493C24.8416 45.8438 24.4383 45.8388 24.0351 45.8343C23.0487 45.8222 22.0626 45.8032 21.0764 45.7806C21.7346 44.9405 22.3652 44.1846 23.1777 43.4937C23.3644 43.331 23.5512 43.1682 23.7436 43.0005C24.1758 42.6329 24.6135 42.2716 25.0548 41.9151C25.281 41.7268 25.5072 41.5385 25.7402 41.3445C25.952 41.1735 26.1638 41.0026 26.382 40.8265C26.9011 40.2987 26.9011 40.2987 26.7642 39.5412C26.6011 38.9213 26.6011 38.9213 26.2698 38.6278C25.4809 38.6231 24.6993 38.6358 23.9112 38.6611C23.675 38.6676 23.4387 38.6741 23.1954 38.6808C22.4377 38.7019 21.6802 38.725 20.9226 38.7481C20.4103 38.7628 19.8979 38.7773 19.3856 38.7917C18.1269 38.8273 16.8682 38.8646 15.6095 38.9029C15.3554 38.1355 15.3011 37.666 15.2999 36.8729C15.2995 36.6422 15.2992 36.4115 15.2988 36.1738C15.2999 35.9339 15.3009 35.694 15.302 35.4469C15.301 35.2059 15.2999 34.9649 15.2988 34.7166C15.2992 34.4863 15.2995 34.256 15.2999 34.0187C15.3002 33.8078 15.3005 33.597 15.3008 33.3797C15.3362 32.8505 15.3362 32.8505 15.6095 32.3003C15.7965 32.3086 15.9835 32.317 16.1761 32.3256C21.2259 32.6842 21.2259 32.6842 26.2698 32.5754C26.8862 32.0827 26.8862 32.0827 26.8261 31.4127C26.4077 30.2843 25.636 29.6783 24.7494 28.8959C24.5755 28.7383 24.4016 28.5806 24.2225 28.4183C23.7231 27.9668 23.2203 27.5196 22.7164 27.0733C22.4881 26.8679 22.2598 26.6626 22.0245 26.4511C21.0932 25.6201 20.144 24.8185 19.163 24.0471C19.5489 22.8293 20.1364 22.1463 21.0422 21.2616C21.2783 21.0283 21.5143 20.7949 21.7576 20.5545C22.3305 20.0246 22.9033 19.5486 23.5364 19.0952C24.4008 19.4726 24.9014 19.881 25.5011 20.6083C26.2448 21.493 27.0001 22.3628 27.7732 23.2218C28.833 24.4036 29.8793 25.5964 30.9166 26.7982C31.8161 26.6939 31.8161 26.6939 32.5567 26.248C32.5613 25.4539 32.5487 24.6673 32.5236 23.8741C32.5171 23.6363 32.5107 23.3986 32.504 23.1536C32.483 22.3911 32.4601 21.6286 32.4371 20.8662C32.4226 20.3505 32.4081 19.8349 32.3939 19.3192C32.3585 18.0524 32.3214 16.7856 32.2833 15.5188C32.9162 15.2003 33.2868 15.2082 33.9907 15.2071Z" fill="#3F1212"/>
<path d="M7.80412 48.1147C8.05209 48.1128 8.30006 48.1109 8.55555 48.1089C9.38019 48.1039 10.2046 48.1067 11.0293 48.1096C11.623 48.1076 12.2168 48.1052 12.8106 48.1024C14.419 48.0962 16.0274 48.097 17.6358 48.0994C18.9801 48.1008 20.3243 48.0988 21.6686 48.0968C24.8406 48.0922 28.0125 48.0931 31.1844 48.0977C34.4536 48.1024 37.7227 48.098 40.9919 48.0891C43.802 48.0818 46.6121 48.0798 49.4221 48.0821C51.0991 48.0835 52.7759 48.0829 54.4528 48.0772C56.0299 48.0722 57.6068 48.0738 59.1839 48.0806C59.7615 48.082 60.3391 48.081 60.9167 48.0775C67.004 48.0436 67.004 48.0436 69.1598 50.1389C70.3454 51.4282 70.9011 52.4568 70.859 54.2399C70.854 54.5108 70.8491 54.7818 70.844 55.0609C70.8345 55.3694 70.8345 55.3694 70.8248 55.6842C69.3215 54.8948 68.1281 53.943 66.8688 52.7988C66.2013 52.3209 66.2013 52.3209 65.4039 52.356C64.2148 52.7707 63.4043 53.4605 62.4537 54.2743C62.0972 54.5717 61.7406 54.869 61.3839 55.1662C60.8605 55.6028 60.3439 56.0425 59.8335 56.4945C59.3445 56.7846 59.3445 56.7846 58.8313 56.7102C58.1888 56.488 57.7644 56.205 57.2261 55.7895C57.0372 55.6452 56.8484 55.5008 56.6538 55.3521C56.4593 55.2007 56.2648 55.0493 56.0644 54.8933C55.8699 54.744 55.6754 54.5947 55.475 54.4408C55.1114 54.1616 54.7483 53.8816 54.3859 53.6006C54.2182 53.4711 54.0505 53.3416 53.8777 53.2082C53.5988 52.9799 53.5988 52.9799 53.3143 52.7469C52.7868 52.3133 52.7868 52.3133 52.0262 52.3679C50.8192 52.765 50.0184 53.4538 49.06 54.2743C48.7035 54.5717 48.3468 54.869 47.9901 55.1662C47.4668 55.6028 46.9502 56.0425 46.4398 56.4945C45.9508 56.7846 45.9508 56.7846 45.4436 56.7803C44.5781 56.3805 43.8698 55.7986 43.1319 55.2028C42.8142 54.953 42.4964 54.7033 42.1784 54.4537C41.6808 54.0595 41.1863 53.6624 40.6943 53.2609C39.8394 52.5726 39.8394 52.5726 38.7937 52.3883C37.6385 52.793 36.7767 53.5206 35.8201 54.2743C35.6268 54.4236 35.4335 54.5729 35.2344 54.7267C34.8735 55.0057 34.5134 55.2856 34.1543 55.5669C33.988 55.6964 33.8218 55.8259 33.6504 55.9593C33.4773 56.1232 33.3041 56.2871 33.1257 56.4559C32.5571 56.7846 32.5571 56.7846 31.8817 56.6177C31.1888 56.2335 30.5897 55.8216 29.9689 55.3285C29.6332 55.0686 29.6332 55.0686 29.2909 54.8035C28.8245 54.438 28.3597 54.0705 27.8964 53.701C27.5608 53.4427 27.5608 53.4427 27.2184 53.1792C27.0166 53.0199 26.8149 52.8606 26.6071 52.6965C26.0082 52.3238 26.0082 52.3238 25.3061 52.4213C24.5839 52.6742 24.1223 52.9666 23.5283 53.4479C23.2296 53.6849 23.2296 53.6849 22.925 53.9266C22.619 54.1753 22.619 54.1753 22.3068 54.429C21.9008 54.7568 21.4937 55.0832 21.0853 55.408C20.9065 55.5532 20.7276 55.6984 20.5434 55.848C19.896 56.2947 19.3827 56.596 18.6167 56.7846C17.9814 56.4726 17.9814 56.4726 17.3354 55.9453C17.0993 55.7586 16.8632 55.5719 16.62 55.3795C16.3769 55.1794 16.1338 54.9792 15.8833 54.7729C15.4009 54.3821 14.917 53.9933 14.4311 53.6069C14.1114 53.3445 14.1114 53.3445 13.7852 53.0768C13.0769 52.6099 12.6296 52.4184 11.7832 52.3829C11.1474 52.6848 11.1474 52.6848 10.5617 53.1792C10.3379 53.3514 10.1142 53.5236 9.88364 53.701C9.65356 53.8845 9.42347 54.068 9.18641 54.2571C8.72903 54.6156 8.27064 54.9727 7.81116 55.3285C7.60944 55.4887 7.40772 55.6489 7.19988 55.814C6.53829 56.2698 6.00258 56.586 5.22297 56.7846C4.64125 56.5188 4.64125 56.5188 4.07301 56.056C3.76515 55.8113 3.76515 55.8113 3.45106 55.5617C3.24088 55.3865 3.0307 55.2113 2.81415 55.0308C2.59869 54.8578 2.38322 54.6847 2.16123 54.5064C1.62916 54.078 1.10122 53.6453 0.576172 53.2082C0.709073 52.0345 0.893672 51.3157 1.66954 50.4228C1.81611 50.2462 1.96269 50.0696 2.11371 49.8876C3.83208 48.4824 5.63803 48.0931 7.80412 48.1147Z" fill="#3F1212"/>
<path d="M12.287 55.184C13.0174 55.4627 13.5176 55.8548 14.1271 56.3467C14.3641 56.5332 14.601 56.7197 14.8452 56.9119C15.3413 57.3077 15.836 57.7053 16.3293 58.1048C16.5666 58.2906 16.8039 58.4764 17.0484 58.6679C17.2633 58.8405 17.4783 59.013 17.6997 59.1908C18.3198 59.5935 18.3198 59.5935 19.0264 59.5044C19.7831 59.2311 20.3013 58.8935 20.9371 58.3992C21.1621 58.2276 21.3871 58.0559 21.6189 57.8791C21.8502 57.6989 22.0815 57.5188 22.3199 57.3332C22.7803 56.9762 23.2418 56.6208 23.7047 56.2671C23.9079 56.109 24.111 55.9508 24.3203 55.7879C24.9091 55.4011 25.2923 55.1888 25.9929 55.1323C26.4673 55.3867 26.4673 55.3867 26.9389 55.7889C27.2 56.0062 27.2 56.0062 27.4664 56.2279C27.7348 56.4601 27.7348 56.4601 28.0088 56.697C29.9776 58.6427 29.9776 58.6427 32.3848 59.4823C33.2169 59.2223 33.7068 58.8633 34.381 58.31C34.6171 58.1223 34.8532 57.9345 35.0964 57.741C35.5891 57.3418 36.0803 56.9405 36.5699 56.5374C36.924 56.2573 36.924 56.2573 37.2853 55.9716C37.605 55.7106 37.605 55.7106 37.9313 55.4443C38.5666 55.1323 38.5666 55.1323 39.2587 55.3033C39.9084 55.6686 40.4861 56.0498 41.0736 56.5089C41.3796 56.7465 41.3796 56.7465 41.6918 56.9888C41.9008 57.1535 42.1097 57.3182 42.325 57.4879C42.5382 57.6537 42.7513 57.8195 42.971 57.9903C44.5189 59.1974 44.5189 59.1974 44.8534 59.534C45.7088 59.6405 46.1126 59.6035 46.8458 59.13C47.0565 58.9456 47.2672 58.7612 47.4843 58.5712C47.72 58.3733 47.9558 58.1754 48.1986 57.9715C48.4477 57.7609 48.6968 57.5502 48.9535 57.3332C49.4777 56.9023 50.0073 56.478 50.5423 56.0608C50.7808 55.87 51.0194 55.6792 51.2652 55.4827C51.9603 55.1323 51.9603 55.1323 52.6151 55.3289C53.3318 55.685 53.8696 56.0705 54.4791 56.5885C54.6892 56.7617 54.8994 56.9349 55.116 57.1134C55.5529 57.4785 55.9878 57.8461 56.4207 58.216C57.6226 59.2322 57.6226 59.2322 59.1013 59.605C60.1455 59.1452 60.9476 58.5308 61.8176 57.7974C61.9813 57.6636 62.145 57.5297 62.3136 57.3918C63.0396 56.7971 63.7518 56.1985 64.4475 55.5676C65.0806 55.1323 65.0806 55.1323 65.6113 55.127C66.4156 55.5279 67.0863 56.0427 67.797 56.5938C68.0757 56.8084 68.3544 57.0229 68.6415 57.244C68.9097 57.455 69.1778 57.666 69.4541 57.8834C69.712 58.0334 69.9699 58.1834 70.2357 58.338C71.1717 59.3712 70.9669 60.4607 70.9062 61.8037C70.9 62.0611 70.8939 62.3186 70.8875 62.5839C70.8714 63.2183 70.849 63.8519 70.8208 64.486C69.3251 63.9905 68.3693 63.0279 67.2172 61.9821C66.2928 61.355 65.9024 61.3457 64.8073 61.4598C64.1115 61.8259 64.1115 61.8259 63.4801 62.3625C63.2424 62.5487 63.0048 62.7349 62.7599 62.9267C62.5166 63.1235 62.2733 63.3203 62.0226 63.5231C61.536 63.9117 61.0481 64.2986 60.5588 64.6837C60.3445 64.8566 60.1302 65.0295 59.9094 65.2076C59.3405 65.5864 59.3405 65.5864 58.5204 65.5864C57.8691 65.1727 57.8691 65.1727 57.1196 64.6063C56.8528 64.4074 56.5861 64.2084 56.3113 64.0035C55.8096 63.6148 55.3138 63.2182 54.8271 62.8106C54.6196 62.6372 54.4121 62.4638 54.1982 62.2851C54.0161 62.1262 53.8339 61.9674 53.6462 61.8037C52.7959 61.3102 52.3878 61.2855 51.4136 61.4598C50.5714 61.9628 49.8287 62.5715 49.0731 63.1964C48.6689 63.5226 48.2642 63.8483 47.8591 64.1733C47.6709 64.3249 47.4827 64.4766 47.2888 64.6328C46.6875 65.0974 46.0646 65.4947 45.4001 65.8615C45.2553 65.7477 45.1106 65.6339 44.9614 65.5167C44.3049 65.0009 43.6481 64.4855 42.9913 63.9701C42.7635 63.7911 42.5357 63.612 42.301 63.4275C42.0816 63.2555 41.8623 63.0835 41.6363 62.9063C41.4345 62.7478 41.2326 62.5893 41.0247 62.426C40.0676 61.6938 40.0676 61.6938 38.9435 61.3061C37.5089 61.5448 36.6336 62.4415 35.5427 63.3683C35.1143 63.7285 34.684 64.0864 34.2518 64.4419C34.0633 64.6018 33.8748 64.7617 33.6805 64.9265C33.0017 65.3763 32.5452 65.5421 31.733 65.5864C31.1643 65.2981 31.1643 65.2981 30.6119 64.8503C30.4104 64.6905 30.2088 64.5308 30.0012 64.3661C29.7947 64.1958 29.5882 64.0254 29.3755 63.8498C28.962 63.5183 28.5484 63.187 28.1348 62.8557C27.9531 62.707 27.7714 62.5583 27.5842 62.4051C26.8972 61.86 26.3964 61.4834 25.5252 61.3255C24.2256 61.5196 23.5174 62.2111 22.5419 63.0589C22.1854 63.3587 21.8287 63.6586 21.4721 63.9583C20.9518 64.3968 20.4415 64.8383 19.9388 65.2973C19.4327 65.5864 19.4327 65.5864 18.7928 65.5219C17.9759 65.2852 17.5219 64.969 16.8637 64.4322C16.6424 64.2581 16.4212 64.084 16.1932 63.9046C15.7336 63.5358 15.2759 63.1647 14.8201 62.7913C13.4941 61.7434 13.4941 61.7434 11.8838 61.377C10.6718 61.8461 9.81717 62.5205 8.84073 63.3683C8.48355 63.6691 8.12622 63.9696 7.76872 64.27C7.61342 64.4036 7.45812 64.5373 7.29811 64.675C6.18363 65.5916 6.18363 65.5916 5.44639 65.5649C3.50349 64.9284 1.47404 63.722 0.298821 62.01C-0.224055 60.1327 0.0221462 58.1381 0.298821 56.2328C1.79373 57.0506 2.98945 57.9685 4.25479 59.1182C4.92361 59.5986 4.92361 59.5986 5.72934 59.5512C6.85417 59.1673 7.61322 58.5585 8.51613 57.7974C8.76164 57.5966 8.76164 57.5966 9.0121 57.3918C9.73814 56.7971 10.4503 56.1985 11.146 55.5676C11.7791 55.1323 11.7791 55.1323 12.287 55.184Z" fill="#3F1212"/>
<path d="M12.0581 63.9385C13.6338 64.749 14.9269 65.7882 16.281 66.9313C16.6262 67.2202 16.6262 67.2202 16.9783 67.5149C17.1492 67.6819 17.3201 67.8489 17.4961 68.021C18.0889 68.4061 18.0889 68.4061 18.9386 68.3746C20.3988 67.9427 21.356 67.1095 22.5134 66.1393C22.9469 65.783 23.3811 65.4277 23.8161 65.0733C24.0057 64.9151 24.1954 64.757 24.3908 64.594C24.9052 64.2136 24.9052 64.2136 25.7252 63.9385C26.3148 64.3157 26.3148 64.3157 26.9937 64.8842C27.2414 65.0849 27.4891 65.2856 27.7443 65.4924C28.2635 65.9216 28.781 66.3529 29.2968 66.7863C30.7276 67.9768 30.7276 67.9768 32.4744 68.4412C33.6544 67.9504 34.5181 67.2831 35.48 66.4488C35.8341 66.1514 36.1882 65.8541 36.5424 65.5569C36.705 65.4183 36.8676 65.2797 37.0351 65.137C37.5336 64.7177 38.046 64.3219 38.5722 63.9385C39.4212 64.3326 40.1222 64.8091 40.8604 65.3849C41.085 65.5569 41.3096 65.7289 41.5411 65.9061C42.0109 66.2682 42.4793 66.6322 42.9462 66.998C43.1712 67.1693 43.3962 67.3405 43.6279 67.517C43.9331 67.7538 43.9331 67.7538 44.2445 67.9954C44.9964 68.4172 45.3765 68.4769 46.2258 68.3402C46.9332 67.9416 46.9332 67.9416 47.6149 67.3773C47.8695 67.1787 48.124 66.9801 48.3863 66.7755C48.6487 66.5656 48.911 66.3556 49.1813 66.1393C49.4489 65.9294 49.7165 65.7195 49.9922 65.5031C50.6525 64.9845 51.3102 64.4629 51.9659 63.9385C52.7435 64.306 53.4107 64.7221 54.0939 65.2452C54.284 65.3899 54.4741 65.5346 54.67 65.6837C54.8657 65.8341 55.0614 65.9844 55.2631 66.1393C55.6534 66.4376 56.0438 66.7356 56.4344 67.0334C56.6064 67.1654 56.7783 67.2973 56.9555 67.4332C57.9163 68.1515 58.417 68.4865 59.6195 68.3402C60.2292 68.0044 60.2292 68.0044 60.7908 67.517C61.1097 67.2601 61.1097 67.2601 61.4352 66.998C61.6534 66.8168 61.8717 66.6355 62.0966 66.4488C62.532 66.0934 62.9679 65.7387 63.4046 65.3849C63.6922 65.1472 63.6922 65.1472 63.9855 64.9047C64.5159 64.5065 65.0325 64.215 65.633 63.9385C66.3661 64.46 67.0933 64.9893 67.8197 65.5203C68.0283 65.6686 68.2369 65.8168 68.4518 65.9695C68.6491 66.1149 68.8464 66.2603 69.0497 66.4101C69.3246 66.609 69.3246 66.609 69.6049 66.8118C70.0064 67.2398 70.0064 67.2398 70.0064 68.3402C69.0649 69.7616 68.0464 70.5099 66.453 71.0913C65.5849 71.2363 64.7381 71.2403 63.8595 71.231C63.6069 71.2327 63.3543 71.2344 63.0941 71.2362C62.2522 71.2406 61.4106 71.2371 60.5687 71.2337C59.9633 71.2351 59.3579 71.2371 58.7525 71.2395C57.1114 71.2445 55.4703 71.2426 53.8291 71.2391C52.1104 71.2363 50.3918 71.2389 48.6731 71.2406C45.6023 71.2427 42.5315 71.2393 39.4606 71.2337C36.6791 71.2288 33.8975 71.2297 31.1159 71.2347C27.882 71.2406 24.6482 71.2428 21.4143 71.2396C19.7038 71.2378 17.9933 71.2376 16.2828 71.2412C14.6746 71.2444 13.0664 71.2422 11.4582 71.2359C10.8685 71.2344 10.2788 71.2348 9.68904 71.2373C8.88305 71.2403 8.07736 71.2365 7.2714 71.231C7.03889 71.2335 6.80639 71.2359 6.56684 71.2384C4.74998 71.2145 3.32407 70.7142 1.93811 69.5105C0.762027 68.0292 0.214372 66.9886 0.304472 65.0389C1.11757 65.5697 1.90489 66.1088 2.67485 66.7024C3.06596 67.0025 3.06596 67.0025 3.46498 67.3085C3.83759 67.6 3.83759 67.6 4.21773 67.8974C5.04687 68.3979 5.37165 68.4455 6.31797 68.3402C6.93201 68.0044 6.93201 68.0044 7.49889 67.517C7.71277 67.3457 7.92665 67.1744 8.14701 66.998C8.36653 66.8168 8.58604 66.6355 8.81221 66.4488C9.25128 66.094 9.69047 65.7394 10.1298 65.3849C10.4195 65.1472 10.4195 65.1472 10.7151 64.9047C11.2381 64.4887 11.2381 64.4887 12.0581 63.9385Z" fill="#3F1212"/>
<path d="M38.8474 30.0998C40.3801 31.1756 41.4612 32.3461 41.8541 34.2264C42.0668 36.4167 41.6525 38.1794 40.3166 39.9349C39.1866 41.159 37.8784 41.8015 36.2357 42.024C34.0674 42.1036 32.4016 41.4149 30.8052 39.9456C29.5146 38.4731 29.1019 36.8051 29.194 34.8722C29.4435 33.009 30.4376 31.6531 31.7405 30.3749C33.8696 28.8443 36.573 28.8504 38.8474 30.0998Z" fill="#FCDE5A"/>
<path d="M36.3787 31.7483C37.8376 32.2954 38.6893 33.0982 39.3854 34.4994C39.4957 35.9418 39.3473 36.8547 38.5654 38.0758C37.5603 39.0115 36.8471 39.4069 35.4733 39.5373C34.056 39.4164 33.2582 38.8468 32.3298 37.7835C31.6664 36.6941 31.6264 35.7523 31.7319 34.4994C32.743 32.5033 34.121 31.4643 36.3787 31.7483Z" fill="#3F1212"/>
<path d="M22.1717 41.1008C21.8651 41.4094 21.5582 41.7177 21.2502 42.025C20.9179 42.3619 20.5905 42.7037 20.2658 43.048C20.0773 43.2452 19.8888 43.4424 19.6946 43.6455C19.4276 43.9285 19.4276 43.9285 19.1553 44.2172C18.5963 44.696 18.2418 44.843 17.5249 44.9523C17.2959 44.46 17.0684 43.9669 16.8416 43.4736C16.6513 43.0618 16.6513 43.0618 16.4572 42.6418C16.1582 41.9261 16.1582 41.9261 16.1582 41.3759C16.8016 41.3292 17.4451 41.2835 18.0887 41.2383C18.447 41.2128 18.8054 41.1873 19.1746 41.161C20.1765 41.1053 21.1685 41.0903 22.1717 41.1008Z" fill="#3F1212"/>
<path d="M29.823 16.0674C29.9132 18.0647 30.0034 20.0619 30.0963 22.1197C29.6453 21.6658 29.1943 21.2119 28.7296 20.7442C28.5309 20.5538 28.3321 20.3633 28.1274 20.1671C27.9428 19.9887 27.7581 19.8104 27.5679 19.6266C27.3804 19.4475 27.193 19.2684 26.9999 19.0839C26.5242 18.5212 26.3781 18.1645 26.2695 17.4429C26.4408 17.3667 26.612 17.2904 26.7885 17.2119C27.0118 17.1122 27.2352 17.0126 27.4654 16.9099C27.6874 16.811 27.9094 16.712 28.1381 16.6101C29.3378 16.0674 29.3378 16.0674 29.823 16.0674Z" fill="#3F1212"/>
<path d="M53.602 26.2471C53.7796 26.6363 53.9559 27.0262 54.1316 27.4163C54.2299 27.6333 54.3282 27.8503 54.4295 28.074C54.6953 28.723 54.6953 28.723 54.9687 29.8235C53.0744 29.8235 51.1802 29.8235 49.2285 29.8235C49.6795 29.3695 50.1305 28.9156 50.5952 28.4479C50.771 28.2678 50.9469 28.0876 51.128 27.902C51.2848 27.7417 51.4416 27.5814 51.6032 27.4163C51.8415 27.1716 51.8415 27.1716 52.0847 26.9219C52.602 26.4341 52.8868 26.2471 53.602 26.2471Z" fill="#3F1212"/>
<path d="M49.5039 41.3789C51.308 41.3789 53.112 41.3789 54.9707 41.3789C54.1507 43.8549 54.1507 43.8549 53.604 44.9553C52.3313 44.606 51.6493 43.8751 50.7745 42.935C50.2966 42.4216 50.2966 42.4216 49.5039 41.9291C49.5039 41.7475 49.5039 41.566 49.5039 41.3789Z" fill="#3F1212"/>
<path d="M17.5249 26.2471C18.6209 26.6148 19.2487 27.0702 20.0362 27.9149C20.7515 28.7014 20.7515 28.7014 21.625 29.2732C21.625 29.4548 21.625 29.6364 21.625 29.8235C19.821 29.8235 18.0169 29.8235 16.1582 29.8235C16.9099 27.1756 16.9099 27.1756 17.5249 26.2471Z" fill="#3F1212"/>
<path d="M41.3047 16.0674C43.7648 16.8927 43.7648 16.8927 44.8581 17.4429C44.4928 18.546 44.0403 19.1778 43.201 19.9705C42.4195 20.6903 42.4195 20.6903 41.8514 21.5695C41.671 21.5695 41.4906 21.5695 41.3047 21.5695C41.3047 19.7538 41.3047 17.9381 41.3047 16.0674Z" fill="#3F1212"/>
</svg>
