<svg width="64" height="64" viewBox="0 0 64 64" fill="none" xmlns="http://www.w3.org/2000/svg">
<rect width="64" height="64" rx="32" fill="#10C625"/>
<path d="M26.047 39.2566L26.8986 39.7532C28.3213 40.5827 29.9382 41.0257 31.6254 41.0257C36.8171 41.0257 41.0257 36.8171 41.0257 31.6254C41.0257 26.4337 36.8171 22.2251 31.6254 22.2251C26.4337 22.2251 22.2251 26.4337 22.2251 31.6254C22.2251 33.3131 22.6683 34.9306 23.4984 36.3535L23.9948 37.2043L23.2269 40.0262L26.047 39.2566ZM19.8799 43.3758L21.4685 37.5376C20.4554 35.801 19.875 33.781 19.875 31.6254C19.875 25.1358 25.1358 19.875 31.6254 19.875C38.1149 19.875 43.3758 25.1358 43.3758 31.6254C43.3758 38.1149 38.1149 43.3758 31.6254 43.3758C29.4705 43.3758 27.4511 42.7958 25.7148 41.7833L19.8799 43.3758ZM27.3851 26.1125C27.5424 26.1014 27.7002 26.0998 27.8578 26.1074C27.9214 26.1116 27.9847 26.119 28.0481 26.1263C28.2353 26.1479 28.441 26.2619 28.5102 26.4187C28.8608 27.2135 29.2009 28.0129 29.5306 28.8166C29.6033 28.994 29.5595 29.224 29.421 29.4465C29.3508 29.5606 29.2404 29.7207 29.1126 29.8843C28.9797 30.0544 28.6937 30.3671 28.6937 30.3671C28.6937 30.3671 28.5778 30.5059 28.6215 30.6788C28.6385 30.7441 28.6928 30.8393 28.742 30.9193C28.7692 30.9636 28.7945 31.0032 28.8109 31.0306C29.1116 31.5327 29.5159 32.0417 30.0096 32.5203C30.1511 32.6574 30.2883 32.7974 30.4359 32.9273C30.9862 33.4125 31.6087 33.809 32.2811 34.1026L32.2871 34.1053C32.3864 34.1481 32.4374 34.1715 32.5827 34.2332C32.656 34.2642 32.731 34.291 32.808 34.3113C32.8358 34.3186 32.8644 34.3227 32.8931 34.3247C33.0831 34.3361 33.1929 34.2142 33.2398 34.1582C34.09 33.1283 34.1677 33.0611 34.1736 33.0615V33.0634C34.2854 32.9457 34.461 32.9048 34.6178 32.9144C34.6893 32.9188 34.7605 32.9325 34.8256 32.9622C35.4505 33.2473 36.4722 33.6919 36.4722 33.6919L37.1555 33.9991C37.27 34.0543 37.3744 34.1844 37.3795 34.3108C37.3825 34.3894 37.391 34.5164 37.3629 34.7485C37.3261 35.0525 37.2337 35.4185 37.1418 35.6103C37.0771 35.7449 36.9935 35.8642 36.8962 35.9653C36.7642 36.1023 36.6662 36.1855 36.5076 36.3037C36.411 36.3756 36.3609 36.4095 36.3609 36.4095C36.1977 36.5124 36.1057 36.5639 35.9113 36.6674C35.6088 36.8285 35.2746 36.9211 34.9323 36.9387C34.7141 36.9499 34.4965 36.9656 34.2785 36.9539C34.2689 36.9533 33.6109 36.8522 33.6109 36.8522C31.9401 36.4127 30.3949 35.5895 29.0983 34.4478C28.8332 34.2145 28.5874 33.962 28.3364 33.7122C27.2917 32.6721 26.5009 31.5507 26.0213 30.4898C25.7848 29.9667 25.6351 29.4065 25.6327 28.83C25.6284 28.1168 25.8618 27.4225 26.2963 26.8569C26.3819 26.7454 26.4632 26.6298 26.6034 26.4974C26.7519 26.3571 26.8464 26.2818 26.9483 26.2297C27.084 26.1603 27.233 26.1232 27.3851 26.1125Z" fill="#FBFFFE"/>
</svg>
