<svg width="627" height="650" viewBox="0 0 627 650" fill="none" xmlns="http://www.w3.org/2000/svg">
<g opacity="0.08">
<mask id="mask0_310_574" style="mask-type:luminance" maskUnits="userSpaceOnUse" x="0" y="0" width="627" height="650">
<path d="M0 0.000689745H626.667V649.334H0V0.000689745Z" fill="white"/>
</mask>
<g mask="url(#mask0_310_574)">
<path d="M483.711 252.339C427.868 306.939 355.62 307.787 315.971 308.253C275.61 308.726 200.588 309.606 143.031 253.639C68.7323 181.395 84.8364 74.0339 86.823 62.0913C175.592 44.226 278.296 83.5793 314.384 170.379C346.739 81.286 452.126 45.7513 539.994 61.4646C542.008 74.0166 557.335 180.353 483.711 252.339Z" fill="white"/>
<path d="M504.741 591.477H355.465C337.103 571.131 307.983 543.453 266.366 519.47C225.107 495.695 186.891 484.383 160.21 478.662C152.325 488.491 144.407 498.865 136.529 509.799C116.487 537.615 99.7781 564.79 85.8168 590.418V461.689C85.9115 396.037 85.8808 349.141 85.5448 345.635C85.5048 345.221 85.2594 343.362 86.3701 342.113C87.0528 341.345 88.1901 341.005 89.9114 340.851C173.934 340.821 257.955 340.79 341.977 340.759C318.138 354.197 294.299 367.633 270.461 381.069C274.845 383.177 281.158 386.271 288.665 390.171C315.009 403.861 363.387 429.366 410.231 471.719C435.482 494.55 472.287 533.123 504.741 591.477Z" fill="white"/>
<path d="M542.225 340.759C542.333 382.178 542.441 423.597 542.549 465.017C529.946 465.885 517.345 466.754 504.742 467.623C490.279 468.849 475.817 470.074 461.354 471.301C446.89 455.373 428.907 437.721 406.993 420.078C386.178 403.321 366.142 390.054 348.283 379.61C371.097 368.315 403.029 355.349 442.755 347.397C482.426 339.457 516.842 339.126 542.225 340.759Z" fill="white"/>
<path d="M300.059 591.477H135.791C142.74 579.983 150.12 568.234 157.954 556.277C165.575 544.646 173.187 533.489 180.74 522.802C198.331 528.362 219.95 536.861 243.155 550.109C267.231 563.854 286.08 578.754 300.059 591.477Z" fill="white"/>
</g>
</g>
</svg>
